<svg width="0" height="0" class="hidden">
  <symbol xmlns="http://www.w3.org/2000/svg" viewBox="0 0 96 96" id="app-code">
    <defs>
      <linearGradient id="a" x1="0%" x2="100.004%" y1="50.004%" y2="50.004%">
        <stop offset="19.35%" stop-color="#00DAF0"></stop>
        <stop offset="90.32%" stop-color="#247CE6"></stop>
      </linearGradient>
      <linearGradient id="b" x1=".003%" x2="100.01%" y1="49.998%" y2="49.998%">
        <stop offset="19.35%" stop-color="#00DAF0"></stop>
        <stop offset="90.32%" stop-color="#247CE6"></stop>
      </linearGradient>
      <linearGradient id="c" x1="65.725%" x2="16.041%" y1="103.177%" y2="34.035%">
        <stop offset="9.14%" stop-color="#1DDF93"></stop>
        <stop offset="48.39%" stop-color="#00DAF0"></stop>
        <stop offset="90.32%" stop-color="#247CE6"></stop>
      </linearGradient>
    </defs>
    <g fill="none" fill-rule="nonzero">
      <path fill="#247CE6" d="M78.63 74.708l14.21-38.386-42.86-9.911-5.71 16.347z"></path>
      <path fill="url(#a)" d="M91.84 75.272L70.18 93.837 27.05 82.485l11.58-21.477z" transform="translate(1 1)"></path>
      <path fill="url(#b)" d="M12.7 46.693L1.67 14.468 50.39 0l-3.96 41.595z" transform="translate(1 1)"></path>
      <path fill="url(#c)" d="M80.13 54.326L66.46 30.489l.26-.164L50.39 0 0 55.613v38.224l91.58-18.565z" transform="translate(1 1)"></path>
      <g>
        <path fill="#000" d="M19.76 21.18h58.076v59.337H19.76z"></path>
        <path fill="#FFF" d="M25.098 69.39h21.78v3.706h-21.78zM34.666 28.894h4.836L49.725 53.44h-5.48l-2.182-5.464H31.972L29.79 53.44h-5.348l10.224-24.545zm5.512 14.34l-3.166-7.903-3.165 7.903h6.33zM48.373 41.318v-.073c0-7.023 5.184-12.78 12.61-12.78 4.56 0 7.295 1.55 9.538 3.81l-3.39 3.988c-1.865-1.727-3.77-2.784-6.188-2.784-4.077 0-7.018 3.464-7.018 7.693v.073c0 4.24 2.869 7.767 7.018 7.767 2.766 0 4.456-1.13 6.361-2.9l3.391 3.496c-2.49 2.722-5.255 4.417-9.916 4.417-7.12.01-12.406-5.61-12.406-12.707"></path>
      </g>
    </g>
  </symbol>
  <symbol xmlns="http://www.w3.org/2000/svg" viewBox="0 0 96 96" id="c-lion">
    <defs>
      <linearGradient id="b" x1="66.708%" x2="28.125%" y1="17.454%" y2="151.692%">
        <stop offset="9.14%" stop-color="#22D88F"></stop>
        <stop offset="90.323%" stop-color="#029DE0"></stop>
      </linearGradient>
      <linearGradient id="a" x1=".001%" x2="115.024%" y1="50%" y2="50%">
        <stop offset="0%" stop-color="#ED358C"></stop>
        <stop offset="15.529%" stop-color="#E9388C"></stop>
        <stop offset="29.688%" stop-color="#DE418C"></stop>
        <stop offset="43.317%" stop-color="#CC508C"></stop>
        <stop offset="56.621%" stop-color="#B2658D"></stop>
        <stop offset="69.693%" stop-color="#90808D"></stop>
        <stop offset="82.593%" stop-color="#67A18E"></stop>
        <stop offset="95.117%" stop-color="#37C78F"></stop>
        <stop offset="100%" stop-color="#22D88F"></stop>
      </linearGradient>
      <linearGradient id="c" x1="55.548%" x2="22.219%" y1="52.504%" y2="104.14%">
        <stop offset="0%" stop-color="#22D88F"></stop>
        <stop offset="100%" stop-color="#029DE0"></stop>
      </linearGradient>
      <linearGradient id="d" x1="29.635%" x2="71.587%" y1="35.689%" y2="95.548%">
        <stop offset="0%" stop-color="#22D88F"></stop>
        <stop offset="100%" stop-color="#029DE0"></stop>
      </linearGradient>
    </defs>
    <g fill="none" fill-rule="nonzero">
      <path fill="url(#a)" d="M35.342 37.203l-6.144 2.517L34.661 0l21.228 11.579z" transform="translate(2 1)"></path>
      <path fill="url(#b)" d="M35.009 0L8.485 16.71 0 67.521l31.945-12.413z" transform="translate(2 1)"></path>
      <path fill="url(#c)" d="M78.199 3.506l-22.31 8.073-16.443 18.175L0 67.521l29.782 21.681 37.436-33.763 22.794-27.917z" transform="translate(2 1)"></path>
      <path fill="url(#d)" d="M33.443 70.665l20.964 16.22 22.96 4.958L91.843 59.08 38.6 39.219z" transform="translate(2 1)"></path>
      <path fill="#000" d="M19.582 18.575h56.693v56.693H19.582z"></path>
      <path fill="#FFF" d="M24.91 64.648h21.26v3.543H24.91zM24.518 37.84v-.066a11.946 11.946 0 0 1 12.256-12.155 12.126 12.126 0 0 1 9.267 3.626l-3.291 3.794a8.673 8.673 0 0 0-6.01-2.652c-3.962 0-6.816 3.29-6.816 7.32v.067c0 4.029 2.786 7.386 6.816 7.386 2.686 0 4.331-1.074 6.178-2.753l3.29 3.325a12.016 12.016 0 0 1-9.636 4.197 11.864 11.864 0 0 1-12.054-12.088M49.767 26.002h5.175v19.124h10.265v4.341h-15.44z"></path>
    </g>
  </symbol>
  <symbol xmlns="http://www.w3.org/2000/svg" viewBox="0 0 96 96" id="data-grip">
    <defs>
      <linearGradient id="a" x1="46.977%" x2="58.801%" y1="53.22%" y2="12.251%">
        <stop offset="0%" stop-color="#9775F8"></stop>
        <stop offset="95.161%" stop-color="#22D88F"></stop>
      </linearGradient>
      <linearGradient id="b" x1="35.259%" x2="50.419%" y1="14.447%" y2="92.656%">
        <stop offset="0%" stop-color="#9775F8"></stop>
        <stop offset="21.423%" stop-color="#689CCE"></stop>
        <stop offset="42.298%" stop-color="#42BDAC"></stop>
        <stop offset="58.968%" stop-color="#2BD197"></stop>
        <stop offset="69.355%" stop-color="#22D88F"></stop>
      </linearGradient>
      <linearGradient id="c" x1="9.267%" x2="125.439%" y1="4.596%" y2="94.455%">
        <stop offset="7.527%" stop-color="#22D88F"></stop>
        <stop offset="72.043%" stop-color="#9775F8"></stop>
      </linearGradient>
      <linearGradient id="d" x1="0%" x2="94.064%" y1="50%" y2="50%">
        <stop offset="7.527%" stop-color="#22D88F"></stop>
        <stop offset="26.582%" stop-color="#5AB0B4"></stop>
        <stop offset="56.452%" stop-color="#B86CF2"></stop>
        <stop offset="100%" stop-color="#FF59E6"></stop>
      </linearGradient>
    </defs>
    <g fill="none" fill-rule="nonzero">
      <path fill="#9775F8" d="M85.986 14.278l5.856 37.591-22.261 12.957-4.294-21.314z"></path>
      <path fill="url(#a)" d="M85.986 14.278L53.102 0 25.485 22.923l39.802 20.589z"></path>
      <path fill="url(#b)" d="M62.062 91.843L23.68 40.099l-11.511 7.686L.796 82.008z"></path>
      <path fill="url(#c)" d="M69.276 65.767L42.379 48.065 0 42.393l62.062 49.45z"></path>
      <path fill="url(#d)" d="M0 .65v41.743l79.707 27.388 6.279-55.503z"></path>
      <path fill="#000" d="M17.582 17.575h56.693v56.693H17.582z"></path>
      <path fill="#FFF" d="M23.317 24.925h9.156c7.378 0 12.476 5.065 12.476 11.672v.067c0 6.607-5.098 11.738-12.476 11.738h-9.156V24.925zm5.165 4.662V43.74h3.99a6.69 6.69 0 0 0 7.077-7.01v-.066a6.742 6.742 0 0 0-7.076-7.077h-3.991zM45.863 36.73v-.066A12.05 12.05 0 0 1 58.17 24.523a12.89 12.89 0 0 1 9.223 3.22l-3.253 3.923a8.645 8.645 0 0 0-6.137-2.38c-3.757 0-6.741 3.32-6.741 7.31v.068c0 4.293 2.95 7.445 7.11 7.445a8.242 8.242 0 0 0 4.863-1.409v-3.353h-5.199v-4.46h10.196v10.195a15.238 15.238 0 0 1-10.028 3.722c-7.311 0-12.342-5.13-12.342-12.073zM22.795 63.628h21.26v3.543h-21.26z"></path>
    </g>
  </symbol>
  <symbol xmlns="http://www.w3.org/2000/svg" viewBox="0 0 96 96" id="idea">
    <defs>
      <linearGradient id="a" x1="-.009%" x2="100.008%" y1="50.01%" y2="50.01%">
        <stop offset="25.81%" stop-color="#F97A12"></stop>
        <stop offset="45.91%" stop-color="#B07B58"></stop>
        <stop offset="72.41%" stop-color="#577BAE"></stop>
        <stop offset="91.05%" stop-color="#1E7CE5"></stop>
        <stop offset="100%" stop-color="#087CFA"></stop>
      </linearGradient>
      <linearGradient id="b" x1=".374%" x2="121.231%" y1="34.553%" y2="77.621%">
        <stop offset="0%" stop-color="#F97A12"></stop>
        <stop offset="7.18%" stop-color="#CB7A3E"></stop>
        <stop offset="15.41%" stop-color="#9E7B6A"></stop>
        <stop offset="24.2%" stop-color="#757B91"></stop>
        <stop offset="33.44%" stop-color="#537BB1"></stop>
        <stop offset="43.24%" stop-color="#387CCC"></stop>
        <stop offset="53.81%" stop-color="#237CE0"></stop>
        <stop offset="65.52%" stop-color="#147CEF"></stop>
        <stop offset="79.25%" stop-color="#0B7CF7"></stop>
        <stop offset="100%" stop-color="#087CFA"></stop>
      </linearGradient>
      <linearGradient id="c" x1="78.228%" x2="30.193%" y1="97.681%" y2="-6.484%">
        <stop offset="0%" stop-color="#FE315D"></stop>
        <stop offset="7.84%" stop-color="#CB417E"></stop>
        <stop offset="16.01%" stop-color="#9E4E9B"></stop>
        <stop offset="24.74%" stop-color="#755BB4"></stop>
        <stop offset="33.92%" stop-color="#5365CA"></stop>
        <stop offset="43.65%" stop-color="#386DDB"></stop>
        <stop offset="54.14%" stop-color="#2374E9"></stop>
        <stop offset="65.76%" stop-color="#1478F3"></stop>
        <stop offset="79.4%" stop-color="#0B7BF8"></stop>
        <stop offset="100%" stop-color="#087CFA"></stop>
      </linearGradient>
      <linearGradient id="d" x1="19.963%" x2="103.391%" y1="24.127%" y2="132.668%">
        <stop offset="0%" stop-color="#FE315D"></stop>
        <stop offset="4.02%" stop-color="#F63462"></stop>
        <stop offset="10.37%" stop-color="#DF3A71"></stop>
        <stop offset="16.67%" stop-color="#C24383"></stop>
        <stop offset="29.12%" stop-color="#AD4A91"></stop>
        <stop offset="54.98%" stop-color="#755BB4"></stop>
        <stop offset="91.75%" stop-color="#1D76ED"></stop>
        <stop offset="100%" stop-color="#087CFA"></stop>
      </linearGradient>
    </defs>
    <g fill="none" fill-rule="nonzero">
      <path fill="url(#a)" d="M23.21 71.61L1.04 54.12l11.08-20.54 31.59 12.38z" transform="translate(2 2)"></path>
      <path fill="url(#b)" d="M91.84 24.49l-1.65 53.19-35.38 14.16-21.22-13.69 31.03-32.28-13.58-29.78L63.3 1.39z" transform="translate(2 2)"></path>
      <path fill="url(#c)" d="M91.84 24.49L63.86 57.61 51.04 16.09 63.3 1.39z" transform="translate(2 2)"></path>
      <path fill="url(#d)" d="M44.2 76.28L7.4 89.58l5.9-20.64 7.63-25.56L0 36.39 13.3 0l28.78 3.49 28.38 32.43z" transform="translate(2 2)"></path>
      <g>
        <path fill="#000" d="M19.96 19.74h56.69v56.69H19.96z"></path>
        <path fill="#FFF" d="M25.27 65.79h21.26v3.54H25.27zM40.57 31.41v-4.3H28.83v4.3h3.29v14.87h-3.29v4.3h11.74v-4.3h-3.29V31.41zM51.84 50.92c-1.83 0-3.37-.35-4.61-1.04-1.24-.69-2.26-1.52-3.07-2.48l3.25-3.62c.67.74 1.35 1.31 2.03 1.73.68.41 1.44.62 2.26.62.98 0 1.75-.31 2.31-.92.56-.61.84-1.6.84-2.97V27.11h5.3v15.36c0 1.41-.19 2.63-.57 3.66a7.25 7.25 0 0 1-1.64 2.62c-.72.72-1.59 1.26-2.63 1.63-1.04.35-2.2.54-3.47.54"></path>
      </g>
    </g>
  </symbol>
  <symbol xmlns="http://www.w3.org/2000/svg" viewBox="0 0 96 96" id="php-storm">
    <defs>
      <linearGradient id="a" x1="1.409%" x2="75.627%" y1="144.013%" y2="24.672%">
        <stop offset="1.613%" stop-color="#765AF8"></stop>
        <stop offset="38.213%" stop-color="#B345F1"></stop>
        <stop offset="75.806%" stop-color="#FA3293"></stop>
        <stop offset="94.086%" stop-color="#FF318C"></stop>
      </linearGradient>
      <linearGradient id="b" x1="358.15%" x2="4207.948%" y1="3133.937%" y2="643.674%">
        <stop offset="1.613%" stop-color="#765AF8"></stop>
        <stop offset="38.213%" stop-color="#B345F1"></stop>
        <stop offset="75.806%" stop-color="#FA3293"></stop>
        <stop offset="94.086%" stop-color="#FF318C"></stop>
      </linearGradient>
      <linearGradient id="c" x1="60.01%" x2="25.368%" y1="98.409%" y2="6.738%">
        <stop offset="18.28%" stop-color="#765AF8"></stop>
        <stop offset="23.82%" stop-color="#8655F6"></stop>
        <stop offset="34.492%" stop-color="#9F4CF3"></stop>
        <stop offset="44.251%" stop-color="#AE47F2"></stop>
        <stop offset="52.191%" stop-color="#B345F1"></stop>
      </linearGradient>
      <linearGradient id="d" x1="87.805%" x2="17.965%" y1="80.771%" y2="35.478%">
        <stop offset="1.613%" stop-color="#765AF8"></stop>
        <stop offset="38.213%" stop-color="#B345F1"></stop>
      </linearGradient>
    </defs>
    <g fill="none" fill-rule="nonzero">
      <path fill="url(#a)" d="M51.955 19.944l-4.32-13.057L15.667 0 0 17.73l48.794 24.949z" transform="translate(3 1)"></path>
      <path fill="url(#b)" d="M36.793 54.318l-.989-27.343L0 17.73l8.755 52.577 28.038-.226z" transform="translate(3 1)"></path>
      <path fill="url(#c)" d="M29.036 53.807l1.728-21.666L56.707 5.452l23.184 4.305 11.951 29.701-12.517 12.433-20.244-3.389-12.688 13.279z" transform="translate(3 1)"></path>
      <path fill="url(#d)" d="M56.707 5.452L19.388 38.597l7.202 42.45 30.952 10.796 34.301-20.531z" transform="translate(3 1)"></path>
      <path fill="#000" d="M20.582 18.547h56.693V75.24H20.582z"></path>
      <path fill="#FFF" d="M25.897 64.61h21.26v3.543h-21.26zM25.74 25.929h9.617c5.615 0 9.014 3.327 9.014 8.14v.067c0 5.449-4.24 8.273-9.517 8.273h-3.935v7.057H25.74V25.93zm9.28 11.87c2.591 0 4.1-1.547 4.1-3.564v-.066c0-2.321-1.614-3.565-4.2-3.565h-4.001V37.8h4.1zM45.658 46.115l3.07-3.674a10.834 10.834 0 0 0 7.044 2.865c2.128 0 3.408-.842 3.408-2.227v-.067c0-1.313-.81-1.99-4.755-2.998C49.67 38.8 46.6 37.48 46.6 32.798v-.072c0-4.278 3.441-7.116 8.263-7.116a13.656 13.656 0 0 1 8.767 3.004l-2.699 3.913a11.052 11.052 0 0 0-6.135-2.328c-1.99 0-3.037.909-3.037 2.056v.067c0 1.551 1.015 2.061 5.093 3.103 4.789 1.247 7.487 2.97 7.487 7.083v.066c0 4.689-3.574 7.316-8.667 7.316a15.024 15.024 0 0 1-10.014-3.775"></path>
    </g>
  </symbol>
  <symbol xmlns="http://www.w3.org/2000/svg" viewBox="0 0 100 100" id="py-charm">
    <defs>
      <linearGradient id="a" x1="-46.663%" x2="90.517%" y1="50%" y2="50%">
        <stop offset="0%" stop-color="#21D789"></stop>
        <stop offset="100%" stop-color="#07C3F2"></stop>
      </linearGradient>
      <linearGradient id="b" x1="-53.693%" x2="133.841%" y1="105.475%" y2="-7.572%">
        <stop offset="1.075%" stop-color="#FCF84A"></stop>
        <stop offset="11.157%" stop-color="#A7EB62"></stop>
        <stop offset="20.564%" stop-color="#5FE077"></stop>
        <stop offset="27.27%" stop-color="#32DA84"></stop>
        <stop offset="30.645%" stop-color="#21D789"></stop>
        <stop offset="57.683%" stop-color="#21D789"></stop>
        <stop offset="59.677%" stop-color="#21D789"></stop>
        <stop offset="68.6%" stop-color="#20D68C"></stop>
        <stop offset="76.27%" stop-color="#1ED497"></stop>
        <stop offset="83.478%" stop-color="#19D1A9"></stop>
        <stop offset="90.403%" stop-color="#13CCC2"></stop>
        <stop offset="97.068%" stop-color="#0BC6E1"></stop>
        <stop offset="100%" stop-color="#07C3F2"></stop>
      </linearGradient>
      <linearGradient id="c" x1="30.694%" x2="77.76%" y1="115.976%" y2="22.263%">
        <stop offset="0%" stop-color="#21D789"></stop>
        <stop offset="16.381%" stop-color="#24D788"></stop>
        <stop offset="30.469%" stop-color="#2FD886"></stop>
        <stop offset="43.709%" stop-color="#41DA82"></stop>
        <stop offset="56.442%" stop-color="#5ADC7D"></stop>
        <stop offset="68.808%" stop-color="#7AE077"></stop>
        <stop offset="80.899%" stop-color="#A1E36E"></stop>
        <stop offset="92.544%" stop-color="#CFE865"></stop>
        <stop offset="100%" stop-color="#F1EB5E"></stop>
      </linearGradient>
      <linearGradient id="d" x1="-9.715%" x2="118.642%" y1="201.699%" y2="-16.898%">
        <stop offset="0%" stop-color="#21D789"></stop>
        <stop offset="6.081%" stop-color="#24D788"></stop>
        <stop offset="11.308%" stop-color="#2FD886"></stop>
        <stop offset="16.22%" stop-color="#41DA82"></stop>
        <stop offset="20.939%" stop-color="#5ADD7D"></stop>
        <stop offset="25.483%" stop-color="#79E077"></stop>
        <stop offset="25.806%" stop-color="#7CE076"></stop>
        <stop offset="49.857%" stop-color="#8CE173"></stop>
        <stop offset="92.473%" stop-color="#B2E56B"></stop>
      </linearGradient>
      <linearGradient id="e" x1="111.829%" x2="-14.179%" y1="50.478%" y2="49.369%">
        <stop offset="38.71%" stop-color="#FCF84A"></stop>
        <stop offset="53.579%" stop-color="#ECF451"></stop>
        <stop offset="82.588%" stop-color="#C2E964"></stop>
        <stop offset="92.473%" stop-color="#B2E56B"></stop>
      </linearGradient>
    </defs>
    <g fill="none" fill-rule="nonzero">
      <path fill="url(#a)" d="M64.391 14.494l26.843 22.323-9.67 19.66-16.173-4.483h-14z" transform="translate(4 4)"></path>
      <path fill="url(#b)" d="M37.361 28.989l-5.2 27.488-.497 9.342-13.097 5.671L0 73.492l5.637-59.388L39.282 0l20.731 13.604z" transform="translate(4 4)"></path>
      <path fill="url(#c)" d="M37.361 28.989l2.521 52.966-8.384 9.888L0 73.492l25.862-38.535z" transform="translate(4 4)"></path>
      <path fill="url(#d)" d="M72.014 25.124H40.19L68.308 0z" transform="translate(4 4)"></path>
      <path fill="url(#e)" d="M91.843 82.167l-28.017 9.509-37.301-10.51 10.836-52.177 4.321-3.865 22.709-2.13L62.334 45.8l18.07-7.006z" transform="translate(4 4)"></path>
      <path fill="#000" d="M21.582 21.64h56.693v56.692H21.582z"></path>
      <path fill="#FFF" d="M26.912 67.662h21.26v3.543h-21.26zM26.762 29.048h9.598c5.603 0 8.993 3.323 8.993 8.12v.068c0 5.436-4.229 8.255-9.497 8.255h-3.927v7.047h-5.167v-23.49zm9.262 11.846c2.584 0 4.094-1.544 4.094-3.558v-.067c0-2.315-1.61-3.556-4.195-3.556h-3.994v7.18h4.095zM47.368 40.86v-.067a11.939 11.939 0 0 1 12.25-12.148 12.12 12.12 0 0 1 9.26 3.624L65.59 36.06a8.668 8.668 0 0 0-6.007-2.65c-3.96 0-6.812 3.289-6.812 7.315v.067c0 4.027 2.785 7.382 6.812 7.382 2.685 0 4.33-1.073 6.175-2.751l3.288 3.323a12.01 12.01 0 0 1-9.63 4.194A11.857 11.857 0 0 1 47.367 40.86"></path>
    </g>
  </symbol>
  <symbol xmlns="http://www.w3.org/2000/svg" viewBox="0 0 100 100" id="re-sharper">
    <defs>
      <linearGradient id="a" x1="-38.498%" x2="114.088%" y1="110.558%" y2="9.941%">
        <stop offset="1.613%" stop-color="#E343E6"></stop>
        <stop offset="40.442%" stop-color="#C40B55"></stop>
        <stop offset="46.774%" stop-color="#C40B55"></stop>
        <stop offset="65.054%" stop-color="#EC841B"></stop>
        <stop offset="95.161%" stop-color="#FFBD00"></stop>
      </linearGradient>
      <linearGradient id="b" x1="-2.703%" x2="128.009%" y1="104.703%" y2="25.931%">
        <stop offset="1.613%" stop-color="#E343E6"></stop>
        <stop offset="40.442%" stop-color="#C40B55"></stop>
        <stop offset="46.774%" stop-color="#C40B55"></stop>
        <stop offset="70.43%" stop-color="#EC841B"></stop>
      </linearGradient>
      <linearGradient id="c" x1="3.288%" x2="87.803%" y1="113.506%" y2="19.599%">
        <stop offset="1.613%" stop-color="#E343E6"></stop>
        <stop offset="66.129%" stop-color="#C40B55"></stop>
      </linearGradient>
      <linearGradient id="d" x1="59.945%" x2="52.348%" y1="-24.552%" y2="51.062%">
        <stop offset="50%" stop-color="#C40B55"></stop>
        <stop offset="61.469%" stop-color="#CD2648"></stop>
        <stop offset="77.656%" stop-color="#D84739"></stop>
        <stop offset="86.559%" stop-color="#DC5333"></stop>
      </linearGradient>
    </defs>
    <g fill="none" fill-rule="nonzero">
      <path fill="url(#a)" d="M65.399 19.934L47.266 48.088l29.42 43.755 15.157-61.579z" transform="translate(4 4)"></path>
      <path fill="url(#b)" d="M67.053 20.58L64.271 0 24.654 44.126l11.499 11.319-8.886 36.398h49.419z" transform="translate(4 4)"></path>
      <path fill="url(#c)" d="M64.271 0H15.237L0 61.758h72.958z" transform="translate(4 4)"></path>
      <path fill="url(#d)" d="M72.619 61.758L67.053 20.58 64.271 0l-9.52 30.156z" transform="translate(4 4)"></path>
      <path fill="#000" d="M21.461 21.76l56.693-.146.146 56.693-56.692.146z"></path>
      <path fill="#FFF" d="M27.054 67.808l21.26-.055.009 3.543-21.26.055zM26.782 29.116l10.748-.027c2.978-.008 5.264.781 6.858 2.366a7.267 7.267 0 0 1 2.028 5.369v.068a7.37 7.37 0 0 1-1.382 4.655 8.072 8.072 0 0 1-3.637 2.646l5.765 8.38-6.045.017-4.884-7.209-4.266.011.048 7.221-5.172.013-.061-23.51zm10.441 11.392a4.295 4.295 0 0 0 2.937-.914 3.071 3.071 0 0 0 1.018-2.42v-.067a3.001 3.001 0 0 0-1.083-2.517 4.751 4.751 0 0 0-2.99-.832l-5.138.014.017 6.75 5.239-.014zM51.258 47.537l-2.554.006-.011-4.301 3.293-.009.827-4.975-2.957.007-.011-4.301 3.697-.01.827-4.908 4.436-.012-.828 4.909 4.873-.013.828-4.908 4.436-.012-.828 4.909 2.554-.007.011 4.302-3.293.008-.828 4.976 2.958-.008.01 4.302-3.696.01-.86 5.042-4.436.012.86-5.043-4.872.012-.861 5.043-4.436.012.86-5.043zm10.037-4.328l.827-4.975-4.873.012-.827 4.976 4.873-.013z"></path>
    </g>
  </symbol>
  <symbol xmlns="http://www.w3.org/2000/svg" viewBox="0 0 96 96" id="rider">
    <defs>
      <linearGradient id="a" x1="94.366%" x2="-32.62%" y1="80.504%" y2="-6.218%">
        <stop offset="0%" stop-color="#F9B517"></stop>
        <stop offset="100%" stop-color="#C80F5E"></stop>
      </linearGradient>
      <linearGradient id="b" x1="63.827%" x2="-.493%" y1="96.32%" y2="16.499%">
        <stop offset="0%" stop-color="#3A70B6"></stop>
        <stop offset="48.333%" stop-color="#C80F5E"></stop>
        <stop offset="100%" stop-color="#3A70B6"></stop>
      </linearGradient>
      <linearGradient id="c" x1="3810%" x2="1790.454%" y1="3881.777%" y2="965.067%">
        <stop offset="0%" stop-color="#F9B517"></stop>
        <stop offset="100%" stop-color="#C80F5E"></stop>
      </linearGradient>
    </defs>
    <g fill="none" fill-rule="nonzero">
      <path fill="url(#a)" d="M91.837 36.599L74.755 68.794 19.453 22.929 27.495.89z" transform="translate(1 3)"></path>
      <path fill="url(#b)" d="M39.837 20.664L58.103 2.341l33.734 74.567-26.994 15.759-29.347-14.436z" transform="translate(1 3)"></path>
      <path fill="url(#c)" d="M.059 19.369L27.495.89l40.276 64.884-31.2 26.748-26.314-10.118z" transform="translate(1 3)"></path>
      <path fill="#000" d="M20.886 19.502H77.54v56.652H20.886z"></path>
      <path fill="#FFF" d="M25.95 26.797h10.878c3.025 0 5.37.85 6.934 2.413a7.471 7.471 0 0 1 2.04 5.439v.07a7.393 7.393 0 0 1-5.1 7.375l5.814 8.497h-6.12L35.3 42.977h-4.113v7.614H25.95V26.797zM36.49 38.355c2.549 0 4.01-1.359 4.01-3.366v-.069c0-2.242-1.564-3.399-4.113-3.399h-5.2v6.834h5.303zM50.54 26.797h9.28c7.478 0 12.644 5.134 12.644 11.83v.068c0 6.696-5.166 11.896-12.645 11.896h-9.28V26.797zm5.234 4.725v14.345h4.045a6.78 6.78 0 0 0 7.171-7.105v-.067a6.834 6.834 0 0 0-7.17-7.174h-4.046zM26.08 65.532h21.244v3.54H26.079z"></path>
    </g>
  </symbol>
  <symbol xmlns="http://www.w3.org/2000/svg" viewBox="0 0 96 96" id="ruby-mine">
    <defs>
      <linearGradient id="a" x1="67.667%" x2="37.123%" y1="100.719%" y2="13.727%">
        <stop offset="17.204%" stop-color="#FF1F51"></stop>
        <stop offset="27.98%" stop-color="#FF3648"></stop>
        <stop offset="46.814%" stop-color="#FF593B"></stop>
        <stop offset="64.641%" stop-color="#FF7231"></stop>
        <stop offset="80.878%" stop-color="#FF812B"></stop>
        <stop offset="94.086%" stop-color="#FF8629"></stop>
      </linearGradient>
      <linearGradient id="b" x1="61.474%" x2="43.572%" y1="22.633%" y2="91.78%">
        <stop offset="2.151%" stop-color="#9039D0"></stop>
        <stop offset="62.903%" stop-color="#FF1F51"></stop>
      </linearGradient>
      <linearGradient id="c" x1=".524%" x2="81.891%" y1="8.012%" y2="97.527%">
        <stop offset="10.753%" stop-color="#9039D0"></stop>
        <stop offset="38.71%" stop-color="#FF1F51"></stop>
        <stop offset="62.903%" stop-color="#FF1F51"></stop>
        <stop offset="65.993%" stop-color="#FF3648"></stop>
        <stop offset="71.393%" stop-color="#FF593B"></stop>
        <stop offset="76.504%" stop-color="#FF7231"></stop>
        <stop offset="81.159%" stop-color="#FF812B"></stop>
        <stop offset="84.946%" stop-color="#FF8629"></stop>
      </linearGradient>
    </defs>
    <g fill="none" fill-rule="nonzero">
      <path fill="url(#a)" d="M76.38 0L50.097 9.417 29.393 0 9.098 51.058l23.322-9.331-.349 25.892 49.867.842 9.905-50.51z" transform="translate(1 1)"></path>
      <path fill="url(#b)" d="M66.662 29.76L33.629 8.083 6.897 24.543l58.479 22.531z" transform="translate(1 1)"></path>
      <path fill="url(#c)" d="M38.229 89.447l34.324-4.57-10.926-21.03 7.248-8.762.749-5.325L33.616 8.01 0 16.263l.034 48.216L19.36 91.843l18.761-2.382.091-.012.017-.002z" transform="translate(1 1)"></path>
      <path fill="#000" d="M18.582 18.547h56.693V75.24H18.582z"></path>
      <path fill="#FFF" d="M23.897 64.61h21.26v3.543h-21.26zM46.405 25.894h5.586l6.195 9.962 6.19-9.962h5.586v23.558h-5.149V34.075l-6.627 10.062h-.138l-6.56-9.962v15.277h-5.083zM23.894 25.878h10.754c2.98 0 5.266.796 6.857 2.386a7.272 7.272 0 0 1 2.016 5.377v.068a7.376 7.376 0 0 1-1.395 4.655 8.077 8.077 0 0 1-3.647 2.638l5.747 8.402h-6.049l-4.869-7.226H29.04l.03 7.226h-5.176V25.878zm10.418 11.427a4.298 4.298 0 0 0 2.941-.907 3.073 3.073 0 0 0 1.025-2.42v-.067a3.003 3.003 0 0 0-1.077-2.521 4.754 4.754 0 0 0-2.99-.84H29.07v6.755h5.242z"></path>
    </g>
  </symbol>
  <symbol xmlns="http://www.w3.org/2000/svg" viewBox="0 0 96 96" id="web-storm">
    <defs>
      <linearGradient id="a" x1="43.776%" x2="70.107%" y1="16.767%" y2="89.726%">
        <stop offset="0%" stop-color="#00CDD7"></stop>
        <stop offset="100%" stop-color="#2086D7"></stop>
      </linearGradient>
      <linearGradient id="b" x1="26.235%" x2="55.911%" y1="19.183%" y2="54.01%">
        <stop offset="0%" stop-color="#FFF045"></stop>
        <stop offset="100%" stop-color="#00CDD7"></stop>
      </linearGradient>
      <linearGradient id="c" x1="8014.168%" x2="8542.208%" y1="853.362%" y2="1621.423%">
        <stop offset="28.495%" stop-color="#00CDD7"></stop>
        <stop offset="94.086%" stop-color="#2086D7"></stop>
      </linearGradient>
    </defs>
    <g fill="none" fill-rule="nonzero">
      <path fill="url(#a)" d="M12.377 83.003L0 9.627 22.897.12l14.616 8.694 13.39-7.231L78.811 12.3 63.156 91.843z" transform="translate(2 2)"></path>
      <path fill="url(#b)" d="M91.842 31.101L79.994 1.822 58.483 0 25.29 31.895l8.935 41.108 16.679 11.701 40.938-24.292-10.041-18.831z" transform="translate(2 2)"></path>
      <path fill="url(#c)" d="M73.443 26.735l8.358 14.846 10.041-10.48-7.377-18.23z" transform="translate(2 2)"></path>
      <path fill="#000" d="M19.582 19.575h56.693v56.693H19.582z"></path>
      <path fill="#FFF" d="M24.925 65.604h21.26v3.543h-21.26zM52.796 47.019l3.01-3.673a10.511 10.511 0 0 0 6.904 2.864c2.086 0 3.341-.842 3.341-2.227v-.067c0-1.313-.793-1.989-4.661-2.997-4.661-1.213-7.671-2.532-7.671-7.214v-.072c0-4.277 3.374-7.114 8.1-7.114a13.223 13.223 0 0 1 8.595 3.003l-2.646 3.912a10.708 10.708 0 0 0-6.014-2.327c-1.95 0-2.977.908-2.977 2.055v.067c0 1.551.994 2.06 4.993 3.102 4.693 1.247 7.339 2.97 7.339 7.081v.067c0 4.687-3.504 7.313-8.497 7.313a14.563 14.563 0 0 1-9.816-3.773M48.197 26.905L44.7 40.623l-4.007-13.718h-3.982l-4.008 13.718-3.496-13.718h-5.48l6.714 23.523h4.413l3.848-13.61 3.801 13.61h4.465l6.709-23.523z"></path>
    </g>
  </symbol>
</svg>